<svg width="48" height="49" viewBox="0 0 48 49" fill="none" xmlns="http://www.w3.org/2000/svg">
<path d="M33.0002 44C33.0002 44.3979 32.8422 44.7794 32.5609 45.0607C32.2796 45.342 31.8981 45.5 31.5002 45.5H16.5002C16.1024 45.5 15.7209 45.342 15.4396 45.0607C15.1583 44.7794 15.0002 44.3979 15.0002 44C15.0002 43.6022 15.1583 43.2207 15.4396 42.9394C15.7209 42.6581 16.1024 42.5 16.5002 42.5H31.5002C31.8981 42.5 32.2796 42.6581 32.5609 42.9394C32.8422 43.2207 33.0002 43.6022 33.0002 44ZM40.5002 20C40.5067 22.5006 39.9418 24.9696 38.8487 27.2186C37.7555 29.4676 36.163 31.4371 34.1927 32.9769C33.8243 33.2593 33.5254 33.6222 33.3187 34.0378C33.112 34.4535 33.0031 34.9108 33.0002 35.375V36.5C33.0002 37.2957 32.6842 38.0587 32.1216 38.6214C31.559 39.184 30.7959 39.5 30.0002 39.5H18.0002C17.2046 39.5 16.4415 39.184 15.8789 38.6214C15.3163 38.0587 15.0002 37.2957 15.0002 36.5V35.375C14.9999 34.9164 14.8945 34.4639 14.692 34.0524C14.4895 33.6409 14.1953 33.2813 13.8321 33.0013C11.8667 31.4706 10.2753 29.5129 9.17833 27.2764C8.08133 25.0398 7.50749 22.583 7.50025 20.0919C7.4515 11.1557 14.674 3.71378 23.6027 3.50003C25.8028 3.44701 27.9912 3.83463 30.0392 4.64006C32.0871 5.4455 33.9533 6.65247 35.5278 8.18995C37.1023 9.72743 38.3534 11.5643 39.2073 13.5926C40.0613 15.6208 40.5009 17.7994 40.5002 20ZM37.5002 20C37.5008 18.1994 37.1411 16.4168 36.4423 14.7573C35.7436 13.0978 34.7199 11.5948 33.4315 10.3369C32.1432 9.07891 30.6162 8.09141 28.9405 7.43248C27.2647 6.77355 25.4741 6.45651 23.674 6.50003C16.3615 6.67253 10.4609 12.7607 10.5002 20.0732C10.5071 22.1105 10.9772 24.1196 11.8751 25.9485C12.773 27.7773 14.075 29.378 15.6827 30.6294C16.4055 31.1912 16.99 31.911 17.3917 32.7335C17.7934 33.5561 18.0016 34.4596 18.0002 35.375V36.5H30.0002V35.375C30.0023 34.457 30.214 33.5516 30.6193 32.7279C31.0245 31.9042 31.6125 31.1838 32.3384 30.6219C33.9511 29.3616 35.2544 27.7495 36.1491 25.9086C37.0437 24.0677 37.5058 22.0468 37.5002 20ZM34.4796 18.2488C34.0907 16.0762 33.0454 14.075 31.4846 12.5145C29.9237 10.954 27.9223 9.90914 25.7496 9.52065C25.5553 9.48791 25.3565 9.49374 25.1645 9.53783C24.9725 9.58192 24.791 9.6634 24.6305 9.77762C24.47 9.89183 24.3335 10.0366 24.2289 10.2035C24.1243 10.3705 24.0536 10.5564 24.0209 10.7507C23.9881 10.9449 23.994 11.1438 24.038 11.3358C24.0821 11.5278 24.1636 11.7092 24.2778 11.8698C24.392 12.0303 24.5368 12.1668 24.7037 12.2714C24.8707 12.376 25.0566 12.4467 25.2509 12.4794C28.3577 13.0025 30.994 15.6388 31.5209 18.7513C31.5802 19.1006 31.7613 19.4177 32.0321 19.6463C32.3029 19.8748 32.6459 20.0002 33.0002 20C33.085 19.9995 33.1696 19.9926 33.2534 19.9794C33.6455 19.9125 33.9949 19.6925 34.2248 19.368C34.4548 19.0435 34.5464 18.6409 34.4796 18.2488Z" fill="#330F00"/>
</svg>
