<svg width="48" height="49" viewBox="0 0 48 49" fill="none" xmlns="http://www.w3.org/2000/svg">
<path d="M40.5 18.5C40.5017 15.7194 39.8006 12.9835 38.4618 10.5463C37.1231 8.10918 35.1902 6.04989 32.8426 4.55972C30.495 3.06955 27.8088 2.19684 25.0337 2.02265C22.2585 1.84845 19.4843 2.37842 16.9688 3.56334C14.4533 4.74825 12.278 6.54967 10.6451 8.80028C9.01208 11.0509 7.97436 13.6777 7.62829 16.4367C7.28222 19.1957 7.63903 21.9974 8.66556 24.5816C9.69209 27.1658 11.3551 29.4487 13.5 31.2182V45.5C13.4998 45.7558 13.5651 46.0075 13.6895 46.231C13.814 46.4544 13.9936 46.6424 14.2112 46.7769C14.4287 46.9115 14.6771 46.9881 14.9327 46.9996C15.1882 47.0111 15.4425 46.957 15.6713 46.8425L24 42.6875L32.3306 46.8519C32.5395 46.9518 32.7685 47.0025 33 47C33.3978 47 33.7794 46.842 34.0607 46.5607C34.342 46.2794 34.5 45.8979 34.5 45.5V31.2182C36.3767 29.6725 37.888 27.7305 38.9254 25.5316C39.9628 23.3326 40.5005 20.9314 40.5 18.5ZM10.5 18.5C10.5 15.83 11.2918 13.2199 12.7752 10.9998C14.2586 8.77977 16.367 7.04944 18.8338 6.02766C21.3006 5.00588 24.015 4.73853 26.6337 5.25943C29.2525 5.78033 31.6579 7.06608 33.5459 8.95409C35.434 10.8421 36.7197 13.2476 37.2406 15.8663C37.7615 18.4851 37.4942 21.1995 36.4724 23.6663C35.4506 26.1331 33.7203 28.2415 31.5002 29.7249C29.2801 31.2083 26.6701 32 24 32C20.4208 31.9961 16.9893 30.5725 14.4584 28.0416C11.9276 25.5107 10.504 22.0792 10.5 18.5ZM31.5 43.0738L24.6694 39.6594C24.461 39.5551 24.2312 39.5008 23.9981 39.5008C23.7651 39.5008 23.5353 39.5551 23.3269 39.6594L16.5 43.0738V33.1944C18.8219 34.3812 21.3924 35 24 35C26.6076 35 29.1781 34.3812 31.5 33.1944V43.0738ZM24 29C26.0767 29 28.1068 28.3842 29.8335 27.2305C31.5602 26.0767 32.906 24.4368 33.7007 22.5182C34.4955 20.5996 34.7034 18.4884 34.2983 16.4516C33.8931 14.4148 32.8931 12.5439 31.4246 11.0754C29.9562 9.60696 28.0853 8.60693 26.0485 8.20179C24.0117 7.79664 21.9005 8.00458 19.9818 8.7993C18.0632 9.59402 16.4233 10.9398 15.2696 12.6665C14.1158 14.3933 13.5 16.4233 13.5 18.5C13.503 21.2839 14.6102 23.9529 16.5787 25.9214C18.5472 27.8899 21.2161 28.9971 24 29ZM24 11C25.4834 11 26.9334 11.4399 28.1668 12.264C29.4001 13.0881 30.3614 14.2595 30.9291 15.6299C31.4968 17.0004 31.6453 18.5084 31.3559 19.9632C31.0665 21.4181 30.3522 22.7544 29.3033 23.8033C28.2544 24.8522 26.918 25.5665 25.4632 25.8559C24.0083 26.1453 22.5003 25.9968 21.1299 25.4291C19.7594 24.8615 18.5881 23.9002 17.764 22.6668C16.9399 21.4334 16.5 19.9834 16.5 18.5C16.5 16.5109 17.2902 14.6033 18.6967 13.1967C20.1032 11.7902 22.0109 11 24 11Z" fill="#330F00"/>
</svg>
