<svg width="48" height="49" viewBox="0 0 48 49" fill="none" xmlns="http://www.w3.org/2000/svg">
<path d="M21.9842 30.1099C23.9946 28.7715 25.5209 26.8217 26.3374 24.5488C27.1539 22.2758 27.2173 19.8005 26.5182 17.4887C25.819 15.177 24.3945 13.1516 22.4553 11.7121C20.516 10.2726 18.165 9.49536 15.7498 9.49536C13.3347 9.49536 10.9837 10.2726 9.04442 11.7121C7.10517 13.1516 5.68065 15.177 4.98152 17.4887C4.28239 19.8005 4.34577 22.2758 5.16228 24.5488C5.9788 26.8217 7.5051 28.7715 9.51547 30.1099C5.8789 31.4502 2.77317 33.9305 0.661724 37.1806C0.550753 37.3455 0.473673 37.5308 0.434964 37.7258C0.396254 37.9208 0.396688 38.1215 0.436239 38.3163C0.47579 38.5112 0.55367 38.6962 0.665351 38.8606C0.777033 39.0251 0.920289 39.1657 1.08679 39.2743C1.25329 39.3829 1.43972 39.4573 1.63524 39.4932C1.83076 39.5291 2.03146 39.5258 2.22569 39.4835C2.41992 39.4412 2.6038 39.3606 2.76663 39.2466C2.92947 39.1326 3.06802 38.9873 3.17422 38.8193C4.5362 36.7245 6.39989 35.0032 8.59604 33.8115C10.7922 32.6199 13.2512 31.9957 15.7498 31.9957C18.2485 31.9957 20.7075 32.6199 22.9037 33.8115C25.0998 35.0032 26.9635 36.7245 28.3255 38.8193C28.5455 39.1463 28.8853 39.3736 29.2716 39.452C29.6578 39.5304 30.0594 39.4536 30.3895 39.2383C30.7196 39.023 30.9517 38.6865 31.0356 38.3014C31.1195 37.9163 31.0485 37.5137 30.838 37.1806C28.7265 33.9305 25.6208 31.4502 21.9842 30.1099ZM7.49985 20.7499C7.49985 19.1182 7.9837 17.5232 8.89022 16.1665C9.79675 14.8098 11.0852 13.7523 12.5927 13.1279C14.1002 12.5035 15.759 12.3401 17.3593 12.6584C18.9597 12.9768 20.4297 13.7625 21.5835 14.9163C22.7373 16.0701 23.523 17.5401 23.8413 19.1404C24.1597 20.7408 23.9963 22.3996 23.3719 23.9071C22.7474 25.4146 21.69 26.703 20.3333 27.6096C18.9766 28.5161 17.3815 28.9999 15.7498 28.9999C13.5626 28.9974 11.4656 28.1275 9.91896 26.5808C8.37232 25.0342 7.50233 22.9372 7.49985 20.7499ZM46.9011 39.2562C46.5679 39.4734 46.1621 39.5495 45.7728 39.4676C45.3836 39.3856 45.0428 39.1524 44.8255 38.8193C43.4651 36.7233 41.6017 35.0012 39.4051 33.81C37.2085 32.6189 34.7486 31.9966 32.2499 31.9999C31.852 31.9999 31.4705 31.8419 31.1892 31.5606C30.9079 31.2793 30.7499 30.8978 30.7499 30.4999C30.7499 30.1021 30.9079 29.7206 31.1892 29.4393C31.4705 29.158 31.852 28.9999 32.2499 28.9999C33.4648 28.9988 34.6645 28.7293 35.7632 28.2108C36.8619 27.6922 37.8326 26.9374 38.6058 26.0003C39.379 25.0631 39.9356 23.9667 40.236 22.7895C40.5363 21.6123 40.573 20.3832 40.3433 19.1902C40.1136 17.9972 39.6232 16.8696 38.9072 15.888C38.1913 14.9065 37.2673 14.0952 36.2014 13.5121C35.1355 12.929 33.954 12.5886 32.7413 12.515C31.5286 12.4415 30.3146 12.6368 29.1861 13.0868C29.0021 13.1663 28.804 13.2082 28.6036 13.2099C28.4031 13.2116 28.2044 13.1731 28.019 13.0967C27.8337 13.0202 27.6656 12.9075 27.5246 12.765C27.3836 12.6225 27.2726 12.4532 27.1982 12.267C27.1237 12.0809 27.0873 11.8818 27.0912 11.6813C27.095 11.4809 27.1389 11.2833 27.2204 11.1001C27.3019 10.917 27.4193 10.752 27.5656 10.615C27.712 10.478 27.8843 10.3717 28.0723 10.3024C30.6551 9.2724 33.5278 9.23533 36.1362 10.1984C38.7447 11.1614 40.9041 13.0563 42.1978 15.5176C43.4916 17.9788 43.8281 20.832 43.1423 23.5266C42.4565 26.2213 40.7971 28.5666 38.4842 30.1099C42.1208 31.4502 45.2265 33.9305 47.338 37.1806C47.5552 37.5137 47.6313 37.9196 47.5494 38.3088C47.4674 38.6981 47.2342 39.0388 46.9011 39.2562Z" fill="#330F00"/>
</svg>
